<svg id="Layer_1" data-name="Layer 1" xmlns="http://www.w3.org/2000/svg" viewBox="0 0 1999.9 275.1"><defs><style>.cls-1{fill:#eb0028;}</style></defs><polygon class="cls-1" points="75.5 69 0 69 0 0 233.9 0 233.9 69 158.5 69 158.5 269.4 75.5 269.4 75.5 69"/><polygon class="cls-1" points="246.5 0 473.6 0 473.6 68.9 329.5 69 329.5 102.1 473.6 102.1 473.6 166.4 329.5 166.3 329.5 200.3 473.6 200.3 473.6 269.4 246.5 269.4 246.5 0"/><path class="cls-1" d="M570.4,200.3h32.4c51.7,0,59.2-41.9,59.2-67.2,0-17-5.3-64.1-65.3-64.1H570.3V200.3ZM487.4,0H623.6c89.8,0,121.5,66.4,121.5,134.3,0,82.6-43.8,135.1-137.7,135.1h-120Z"/><path d="M779.6,141.6c0-82.9,49.9-133.5,118.1-133.5,50.2,0,95.8,26.2,108.7,87.9H976c-11.5-44.5-43.8-60.3-78.2-60.3-51.7,0-86.5,39.1-86.5,105.9s34.8,105.9,86.5,105.9c36.3,0,73.6-21.9,80-71.1h30.1c-6.5,66.8-57.8,98.7-110.2,98.7C829.5,275.1,779.6,224.5,779.6,141.6Z"/><path d="M1020.8,176.8c0-59.2,37.7-96.9,89.7-96.9s89.7,37.7,89.7,96.9-37.7,96.9-89.7,96.9S1020.8,236,1020.8,176.8Zm149.3,0c0-44.9-23.7-71.1-59.6-71.1s-59.6,26.2-59.6,71.1,23.7,71.1,59.6,71.1S1170.1,221.6,1170.1,176.8Z"/><path d="M1371.7,84.2V269.4h-27.3V241.8c-12.2,18.7-32.3,31.9-58.1,31.9-41.3,0-65.3-23.3-65.3-64.2V84.2h28.7V206.6c0,28.7,15.8,41.3,42.4,41.3,24,0,51-17.9,51-58.9V84.2Z"/><path d="M1498.6,81.7v27.6h-7.2c-37,0-60.7,18.7-60.7,54.6V269.4H1402V84.2h27.3v32.7c10.4-19.4,29.4-35.5,59.6-35.5A66.64,66.64,0,0,1,1498.6,81.7Z"/><path d="M1504.1,210.5h29.1c3.2,28,16.9,38.4,49.5,38.4,31.2,0,44.5-10.4,44.5-28.7,0-16.5-10-24-42.4-30.1l-17.2-3.2c-40.2-7.5-57.8-25.8-57.8-54.6,0-31.6,25.1-52.4,67.5-52.4,49.5,0,74.7,21.9,75.4,61.4H1624c-1.4-28.7-18.3-36.6-46.7-36.6-24.8,0-38.8,10-38.8,27.3,0,17.6,13.6,24,37.3,28.7l16.5,3.2c45.6,9,63.9,24.4,63.9,54.6,0,35.2-28,55.3-73.6,55.3C1535.6,273.7,1506.9,253.9,1504.1,210.5Z"/><path d="M1838,186.8H1697.3c2.9,41.6,24.8,60.7,57.1,60.7,26.2,0,42.7-13.6,49.2-34.5h29.8c-9,34.8-35.5,60.7-79.7,60.7-50.6,0-86.1-37-86.1-96.9,0-58.1,34.1-96.9,85.4-96.9,55.3,0,85.1,43.8,85.1,96.9v10ZM1698,161h109.1c-2.9-30.5-21.2-54.9-54.2-54.9C1723.9,106.1,1702.7,124.4,1698,161Z"/><path d="M1847.8,210.5h29.1c3.2,28,16.9,38.4,49.5,38.4,31.2,0,44.5-10.4,44.5-28.7,0-16.5-10.1-24-42.4-30.1l-17.2-3.2c-40.2-7.5-57.8-25.8-57.8-54.6,0-31.6,25.1-52.4,67.5-52.4,49.5,0,74.7,21.9,75.4,61.4h-28.7c-1.4-28.7-18.3-36.6-46.7-36.6-24.8,0-38.8,10-38.8,27.3,0,17.6,13.6,24,37.3,28.7l16.5,3.2c45.6,9,63.9,24.4,63.9,54.6,0,35.2-28,55.3-73.6,55.3C1879.4,273.7,1850.7,253.9,1847.8,210.5Z"/></svg>